<svg width="720" height="220" viewBox="0 0 720 220" fill="none" xmlns="http://www.w3.org/2000/svg">
  <g transform="translate(44 30)">
    <circle cx="80" cy="80" r="56" stroke="#2F4F46" stroke-width="3.5"/>
    <path d="M48.5 112.8C61.9 102.5 71.8 89.1 78.3 72.6C84.8 56.1 95.8 43.1 111.5 33.5" stroke="#2F4F46" stroke-width="3.5" stroke-linecap="round"/>
    <path d="M61.5 117C75.2 108.6 86.1 96 94.1 79C99.8 67.1 108.6 57.5 120.8 50.1" stroke="#2F4F46" stroke-width="3.5" stroke-linecap="round"/>
    <path d="M78.3 72.6C66.9 66 55.7 63.9 44.8 66.2C46.4 77.5 52.4 85.9 62.8 91.4C68.1 94.2 73.7 95.5 79.4 95.2" stroke="#2F4F46" stroke-width="3.5" stroke-linecap="round" stroke-linejoin="round"/>
    <path d="M94.1 79C104.3 72.1 114.8 70 125.5 72.8C123.5 83.1 117.8 90.7 108.3 95.5C102.6 98.3 96.8 99.1 90.6 98" stroke="#2F4F46" stroke-width="3.5" stroke-linecap="round" stroke-linejoin="round"/>
    <path d="M61.1 126.2C73.6 132.8 86.4 132.8 98.9 126.2" stroke="#9CAF9A" stroke-width="3.5" stroke-linecap="round"/>
    <path d="M65.6 49.4C73.9 41.8 78.6 34 80 26C81.4 34 86.1 41.8 94.4 49.4" stroke="#9CAF9A" stroke-width="3.5" stroke-linecap="round" stroke-linejoin="round"/>
  </g>
  <text x="226" y="98" fill="#2F4F46" font-family="'Playfair Display', 'Cormorant Garamond', Georgia, serif" font-size="58" font-weight="500" letter-spacing="0.5">InnerLight</text>
  <text x="231" y="139" fill="#9CAF9A" font-family="'Plus Jakarta Sans', Inter, Arial, sans-serif" font-size="15" font-weight="500" letter-spacing="8">COUNSELLING</text>
</svg>
